<?xml version="1.0" encoding="UTF-8"?>
<svg id="b" data-name="Layer 2" xmlns="http://www.w3.org/2000/svg" width="383.28" height="310.611" viewBox="0 0 383.28 310.611">
  <g id="c" data-name="Layer 1">
    <g>
      <path d="M383.28,291.959c-2.973,9.594-9.576,16.747-19.93,17.871-30.028-1.403-62.236,2.184-92.011.128-9.506-.657-22.048-8.661-22.048-19.122v-75.228h-59.883v35.93h38.55c.643,0,4.199,2.087,4.876,2.82,4.324,4.689,2.451,12.846-3.731,14.792l-148.538.284c-6.777-.892-9.886-9.142-5.699-14.545.842-1.086,4.57-3.352,5.631-3.352h38.55v-35.93H7.889c-2.522,0-6.962-4.06-7.508-6.714L0,9.357C-.028,4.2,4.2-.028,9.357,0l292.355.381c3.176.805,6.714,5.102,6.714,8.256v94.69h58.012c2.085,0,9.203,4.599,10.885,6.331,3.266,3.363,4.311,7.441,5.957,11.634v170.667ZM290.462,17.994H17.994v179.649h231.298v-75.977c0-6.354,10.517-18.339,16.842-18.339h23.205l1.123-1.123V17.994ZM269.251,121.415l-1.444,1.551.002,166.568,1.871,1.871,93.371.162,1.871-1.871.427-163.574-.838-3.653-95.261-1.054ZM171.444,215.608h-34.433v35.93h34.433v-35.93Z"/>
      <path d="M292.211,135.767c1.449-1.384,4.108-2.272,6.109-2.499,7.148-.812,30.457-.956,37.249.18,9.897,1.655,10,16.212.131,17.737-6.112.945-32.713.944-38.828,0-7.085-1.093-9.709-10.597-4.661-15.419Z"/>
    </g>
  </g>
</svg>